<?xml version="1.0" standalone="no"?>
<!DOCTYPE svg PUBLIC "-//W3C//DTD SVG 20010904//EN"
 "http://www.w3.org/TR/2001/REC-SVG-20010904/DTD/svg10.dtd">
<svg version="1.0" xmlns="http://www.w3.org/2000/svg"
 width="3840.000000pt" height="2160.000000pt" viewBox="0 0 3840.000000 2160.000000"
 preserveAspectRatio="xMidYMid meet">

<g transform="translate(0.000000,2160.000000) scale(0.100000,-0.100000)"
fill="#000000" stroke="none">
<path d="M36275 14724 c-16 -3 -68 -12 -115 -20 -548 -97 -964 -500 -1094
-1057 -52 -222 -67 -602 -33 -787 113 -598 555 -1042 1152 -1156 137 -26 379
-24 518 4 168 35 400 124 542 210 232 139 427 354 539 593 103 220 148 440
148 721 -1 446 -134 805 -403 1083 -193 199 -449 337 -729 390 -82 16 -454 29
-525 19z m-254 -917 c18 -12 70 -72 116 -132 73 -96 83 -115 83 -151 0 -38
-28 -108 -70 -171 -12 -19 -12 -30 -2 -70 37 -143 318 -416 465 -453 43 -11
48 -10 81 15 47 36 100 54 156 54 42 0 53 -6 160 -92 63 -51 125 -107 137
-126 43 -64 23 -139 -59 -218 -69 -67 -125 -88 -238 -88 -92 0 -99 2 -184 43
-172 82 -358 219 -553 406 -239 229 -391 445 -414 588 -25 155 60 324 201 399
47 24 80 24 121 -4z"/>
<path d="M562 13228 l3 -1453 625 -3 c647 -3 773 2 919 37 299 73 507 264 592
541 19 63 22 97 22 215 0 124 -3 149 -26 220 -74 225 -248 399 -465 465 -41
12 -70 26 -65 30 4 3 31 15 58 25 191 69 340 217 402 400 26 74 28 92 28 230
-1 163 -12 219 -66 326 -112 224 -312 353 -633 409 -37 6 -316 10 -728 10
l-668 0 2 -1452z m1243 1018 c92 -22 151 -51 205 -102 74 -69 103 -137 108
-255 8 -183 -55 -303 -194 -373 -100 -50 -152 -56 -506 -56 l-328 0 0 400 0
400 328 0 c247 0 342 -4 387 -14z m68 -1204 c137 -42 234 -120 285 -230 36
-80 44 -250 14 -334 -42 -120 -124 -199 -255 -246 l-72 -27 -377 -3 -378 -4 0
430 c0 236 3 432 8 436 4 5 165 6 357 3 316 -4 357 -7 418 -25z"/>
<path d="M5190 13225 l0 -1455 260 0 260 0 0 1455 0 1455 -260 0 -260 0 0
-1455z"/>
<path d="M8200 14465 l0 -215 659 0 c363 0 662 -4 665 -8 3 -5 -18 -44 -47
-88 -29 -43 -119 -183 -201 -309 -83 -127 -173 -266 -202 -310 -29 -44 -240
-368 -468 -720 l-416 -640 2 -200 3 -200 978 -3 977 -2 0 220 0 220 -675 0
c-409 0 -675 4 -675 9 0 5 17 36 38 68 22 32 78 119 127 193 48 74 145 223
216 330 240 366 527 805 612 935 47 72 146 224 221 339 l136 208 0 194 0 194
-975 0 -975 0 0 -215z"/>
<path d="M13506 14672 c-2 -4 -66 -176 -141 -382 -295 -807 -399 -1090 -545
-1490 -294 -801 -370 -1012 -370 -1021 0 -6 113 -8 273 -7 l272 3 29 80 c43
121 144 409 178 508 l31 87 572 0 572 0 113 -327 c62 -181 117 -334 122 -340
8 -10 76 -13 278 -13 146 0 269 2 272 5 3 3 -11 52 -32 108 -21 56 -83 226
-138 377 -56 151 -167 455 -247 675 -81 220 -192 524 -247 675 -123 339 -354
970 -375 1028 l-16 42 -298 0 c-164 0 -300 -4 -303 -8z m357 -757 c25 -72 71
-202 102 -290 31 -88 65 -185 75 -215 10 -30 57 -165 104 -299 47 -134 86
-245 86 -247 0 -2 -191 -4 -425 -4 l-425 0 6 28 c4 15 11 35 16 45 5 10 15 37
23 60 7 23 50 148 95 277 45 129 88 253 95 275 8 22 46 132 85 245 40 113 76
217 80 232 21 70 23 69 83 -107z"/>
<path d="M17542 13228 l3 -1453 263 -3 262 -2 0 575 0 575 23 5 c12 3 112 4
222 3 l200 -3 35 -70 c36 -71 77 -157 225 -475 46 -96 105 -222 132 -280 27
-58 72 -152 99 -210 26 -58 53 -108 59 -112 14 -11 595 -10 595 0 0 5 -133
278 -295 606 -162 328 -295 600 -295 604 0 4 32 20 72 36 242 100 398 286 475
566 26 98 24 337 -6 445 -80 297 -272 495 -571 589 -164 52 -222 56 -888 56
l-612 0 2 -1452z m1264 988 c142 -46 225 -128 269 -267 72 -230 -12 -481 -195
-578 -97 -52 -173 -61 -511 -61 l-299 0 0 463 c0 255 3 467 8 472 4 4 151 5
327 2 311 -5 322 -5 401 -31z"/>
<path d="M22137 14673 c-9 -8 -9 -2866 -1 -2888 5 -13 117 -15 950 -15 l944 0
0 210 0 210 -682 2 -683 3 -3 423 c-2 371 0 422 13 422 8 0 283 0 610 0 327 0
601 3 610 6 13 5 15 35 15 205 l0 199 -622 2 -623 3 -3 403 -2 402 685 0 685
0 0 210 0 210 -943 0 c-519 0 -947 -3 -950 -7z"/>
<path d="M26540 13225 l0 -1455 908 2 907 3 0 200 0 200 -645 5 -645 5 -3
1248 -2 1247 -260 0 -260 0 0 -1455z"/>
<path d="M30826 14671 c-3 -5 -5 -658 -3 -1452 l2 -1444 910 0 910 0 0 200 0
200 -647 3 -648 2 0 1250 0 1250 -259 0 c-143 0 -262 -4 -265 -9z"/>
<path d="M15180 10625 l0 -105 3930 0 3930 0 0 105 0 105 -3930 0 -3930 0 0
-105z"/>
<path d="M10745 9343 c-148 -20 -313 -85 -422 -166 -191 -142 -285 -401 -239
-655 25 -141 83 -240 194 -335 117 -99 243 -159 572 -271 306 -105 398 -162
452 -281 17 -39 22 -68 22 -135 1 -104 -24 -160 -97 -226 -66 -60 -139 -85
-260 -92 -154 -8 -271 31 -355 116 -61 63 -94 125 -112 212 l-16 75 -225 2
c-123 2 -230 -1 -236 -5 -18 -12 1 -156 33 -252 38 -111 78 -176 168 -266 157
-157 342 -233 631 -259 90 -8 293 10 393 36 42 11 120 41 172 67 79 38 110 61
181 132 96 95 144 177 178 300 87 314 -32 612 -306 766 -124 70 -200 102 -438
184 -115 40 -243 89 -284 109 -99 48 -172 119 -192 186 -42 149 16 287 149
352 52 25 68 27 167 28 61 0 129 -6 152 -13 105 -32 201 -137 226 -247 l13
-60 237 -3 237 -2 0 42 c0 63 -35 189 -72 264 -128 257 -418 407 -777 403 -64
-1 -129 -4 -146 -6z"/>
<path d="M13887 9303 c-4 -3 -7 -557 -7 -1229 l0 -1224 23 -5 c12 -3 112 -4
222 -3 l200 3 3 843 c1 463 6 842 10 842 4 0 67 -118 139 -262 73 -145 224
-443 336 -663 l204 -400 182 0 182 0 157 310 c87 171 239 469 337 663 l180
353 3 -840 2 -841 23 -5 c12 -3 112 -4 222 -3 l200 3 3 1233 2 1232 -265 0
-266 0 -386 -780 c-213 -429 -390 -777 -394 -773 -4 5 -181 356 -393 781
l-387 772 -263 0 c-144 0 -266 -3 -269 -7z"/>
<path d="M19416 9301 c-4 -5 -39 -101 -80 -213 -40 -112 -108 -297 -151 -413
-42 -115 -135 -370 -207 -565 -128 -352 -315 -861 -409 -1119 -27 -73 -46
-137 -43 -142 9 -15 451 -11 461 4 4 6 51 136 104 287 l96 275 480 3 480 2 21
-57 c11 -32 56 -161 99 -288 l79 -230 229 -3 c126 -1 232 1 237 6 5 5 -16 75
-46 158 -30 82 -114 311 -186 509 -72 198 -183 500 -245 670 -62 171 -173 472
-245 670 -72 198 -139 380 -149 405 l-17 45 -252 3 c-148 1 -253 -1 -256 -7z
m434 -1029 c94 -271 170 -495 168 -498 -3 -2 -162 -3 -355 -2 l-350 3 66 190
c37 105 116 331 175 503 60 172 112 309 116 305 4 -4 85 -230 180 -501z"/>
<path d="M22825 9298 c-3 -7 -4 -562 -3 -1233 l3 -1220 220 0 220 0 5 485 5
485 185 3 185 2 77 -162 c42 -90 140 -298 217 -463 77 -165 146 -311 154 -325
l13 -25 252 -3 c212 -2 252 0 252 12 0 12 -283 594 -453 932 l-46 92 58 21
c205 75 355 257 412 501 18 78 16 260 -5 344 -78 324 -333 523 -710 556 -172
15 -1035 13 -1041 -2z m1038 -382 c79 -22 129 -49 170 -92 130 -139 136 -396
12 -550 -39 -47 -128 -97 -203 -113 -31 -6 -161 -11 -312 -11 l-260 0 0 389
c0 302 3 391 13 395 6 3 127 4 267 2 189 -4 270 -9 313 -20z"/>
<path d="M26555 9288 c-3 -13 -4 -93 -3 -178 l3 -155 357 -3 358 -2 2 -1053 3
-1052 223 -3 222 -2 0 1055 0 1055 360 0 360 0 0 180 0 180 -940 0 -940 0 -5
-22z"/>
</g>
</svg>
